<?xml version="1.0" encoding="utf-8"?>
<!-- Generator: Adobe Illustrator 25.4.1, SVG Export Plug-In . SVG Version: 6.00 Build 0)  -->
<svg version="1.1" id="Layer_1" xmlns="http://www.w3.org/2000/svg" xmlns:xlink="http://www.w3.org/1999/xlink" x="0px" y="0px"
	 viewBox="0 0 40 40" style="enable-background:new 0 0 40 40;" xml:space="preserve">
<style type="text/css">
	.st0{fill:#FFFFFF;}
</style>
<g>
	<path class="st0" d="M37.56,13.12c0,8.15,0,16.29,0,24.44c-11.71,0-23.41,0-35.12,0c0-11.71,0-23.41,0-35.12
		c11.71,0,23.41,0,35.12,0c0,3.31,0,6.62,0,9.93c-0.36-1.01-1.18-1.63-1.93-2.29c-0.74-0.65-1.83-0.49-2.61,0.3
		c-4.23,4.23-8.46,8.45-12.68,12.68c-0.09,0.09-0.13,0.24-0.2,0.36c-0.24-0.18-0.32-0.3-0.42-0.39c-4.19-4.19-8.37-8.37-12.56-12.56
		c-0.1-0.1-0.21-0.21-0.32-0.31C6.11,9.53,5.09,9.5,4.36,10.12c-0.43,0.37-0.83,0.78-1.23,1.19c-0.85,0.87-0.85,1.99,0.01,2.86
		c5.14,5.15,10.29,10.3,15.44,15.44c0.23,0.23,0.54,0.44,0.85,0.54c0.83,0.28,1.52-0.01,2.13-0.62c4.96-4.97,9.92-9.93,14.88-14.88
		C36.91,14.2,37.36,13.75,37.56,13.12z"/>
	<path class="st0" d="M37.56,13.12c-0.2,0.63-0.65,1.08-1.1,1.53c-4.97,4.96-9.93,9.92-14.88,14.88c-0.61,0.61-1.3,0.9-2.13,0.62
		c-0.31-0.1-0.62-0.31-0.85-0.54c-5.16-5.14-10.3-10.29-15.44-15.44c-0.86-0.87-0.86-1.99-0.01-2.86c0.4-0.41,0.79-0.82,1.23-1.19
		c0.73-0.62,1.74-0.59,2.47,0.04c0.11,0.1,0.22,0.2,0.32,0.31c4.19,4.19,8.37,8.37,12.56,12.56c0.1,0.1,0.18,0.21,0.42,0.39
		c0.07-0.12,0.11-0.27,0.2-0.36c4.22-4.23,8.45-8.46,12.68-12.68c0.79-0.79,1.88-0.95,2.61-0.3c0.75,0.66,1.58,1.28,1.93,2.29
		C37.56,12.62,37.56,12.87,37.56,13.12z"/>
</g>
</svg>
