<svg id="Layer_1" data-name="Layer 1" xmlns="http://www.w3.org/2000/svg" viewBox="0 0 334.51 45.11"><defs><style>.cls-1{fill:#fff;}</style></defs><path class="cls-1" d="M252.53,249c.26-.09.41-.13.54-.19a17.75,17.75,0,0,0,10-11.21,9,9,0,0,0-.22-6.32,3,3,0,0,0-3.69-1.92,9.41,9.41,0,0,0-3.08,1.3.78.78,0,0,1-1.21-.22,5.33,5.33,0,0,0-4-2.39,5.75,5.75,0,0,0-5.77,2.39.81.81,0,0,1-1.18.26,19.61,19.61,0,0,0-1.82-.94,6.23,6.23,0,0,0-1.57-.44,3,3,0,0,0-3.54,2.26,9.4,9.4,0,0,0-.13,5.93,17.84,17.84,0,0,0,7.9,10.19c.8.51,1.68.89,2.53,1.33l.08-.13-.32-.39a18.24,18.24,0,0,1-4-11c0-.63.29-1,.8-1s.76.35.79,1a17.74,17.74,0,0,0,2.23,8,13.58,13.58,0,0,0,3.1,3.79l.3-.25a14,14,0,0,0,3.16-4.2,17.94,17.94,0,0,0,1.88-7.36c0-.61.41-1,.92-.91a.81.81,0,0,1,.67.93,19.07,19.07,0,0,1-1.45,6.82A17,17,0,0,1,252.53,249Zm-3.28,14.17a16.17,16.17,0,0,0-4-4.69,14.79,14.79,0,0,0-10.3-2.87.67.67,0,0,0-.66.75c0,1.13,0,2.25.1,3.37A13.87,13.87,0,0,0,246,271.82a36.55,36.55,0,0,0,5.92.19,13.65,13.65,0,0,0,11.46-6.27,14.7,14.7,0,0,0,2.33-9.48.7.7,0,0,0-.78-.7h-1.68A13.89,13.89,0,0,0,251,262.78c-.07.13-.15.25-.22.37l-.09,0V250.89h-1.45Z" transform="translate(68.76 -226.94)"/><path d="M-50.48,247.94a16.74,16.74,0,0,0,2.93-4.73,19,19,0,0,0,1.45-6.82.81.81,0,0,0-.66-.93c-.52-.08-.91.3-.93.91a17.75,17.75,0,0,1-1.88,7.36,14,14,0,0,1-3.16,4.2l-.3.25a13.94,13.94,0,0,1-3.1-3.79,17.74,17.74,0,0,1-2.23-8c0-.61-.3-.95-.79-1s-.82.36-.8,1a18.21,18.21,0,0,0,4,11l.32.39-.08.13c-.84-.44-1.73-.82-2.53-1.33a17.85,17.85,0,0,1-7.9-10.18,9.43,9.43,0,0,1,.13-5.94,3,3,0,0,1,3.54-2.26,6.23,6.23,0,0,1,1.57.44c.63.27,1.22.61,1.82.94a.8.8,0,0,0,1.18-.26A5.76,5.76,0,0,1-52.16,227a5.35,5.35,0,0,1,4,2.39.77.77,0,0,0,1.2.22,9.41,9.41,0,0,1,3.08-1.3,3,3,0,0,1,3.7,1.93,9.05,9.05,0,0,1,.21,6.32,17.76,17.76,0,0,1-10,11.2C-50.07,247.81-50.22,247.85-50.48,247.94Z" transform="translate(68.76 -226.94)"/><path d="M-53.76,262.11V249.87h1.45V262.1l.09,0,.22-.36a13.88,13.88,0,0,1,12.25-7.23h1.68a.7.7,0,0,1,.78.7,14.78,14.78,0,0,1-2.32,9.49A13.67,13.67,0,0,1-51.07,271,36.64,36.64,0,0,1-57,270.8a13.88,13.88,0,0,1-11.66-12.13c-.11-1.12-.08-2.24-.1-3.36a.68.68,0,0,1,.66-.76,14.78,14.78,0,0,1,10.3,2.87A16.17,16.17,0,0,1-53.76,262.11Z" transform="translate(68.76 -226.94)"/></svg>