<svg id="Layer_1" data-name="Layer 1" xmlns="http://www.w3.org/2000/svg" viewBox="0 0 357.89 331.45"><defs><style>.cls-1{fill:#fff;}</style></defs><path class="cls-1" d="M170.94,372.58l-42.52-71.33c8-5,15.84-10.07,23.87-14.74,13.6-7.92,27.56-15,43.26-18C207,266.4,218.3,267,228.9,271.78s21.6,5.68,32.75,6.72c21.55,2,42.79-1.1,64-4.12,3.09-.44,6.16-1.09,9.26-1.23,9.7-.43,15.4,8.41,11,17.08a23.12,23.12,0,0,1-13.33,12c-17.56,5.71-35.55,8.8-54.12,6.23a28.27,28.27,0,0,1-4.76-1c-2.94-.93-5.4-.45-6.37,2.64s1.08,4.8,3.87,5.73c16.42,5.47,33.09,10.3,49.18,16.61,20.15,7.89,39.94,4.2,59.9.26,10.75-2.12,21.42-4.72,32.22-6.51a25.53,25.53,0,0,1,11.33,1.19c5.21,1.62,6.71,6.2,3.08,10.22a40.93,40.93,0,0,1-12.19,9.5,149.43,149.43,0,0,1-22.05,8.08c-18.13,5.38-36.4,10.3-54.57,15.59-19.78,5.77-39.3,5-58.81-1.36-14.2-4.63-28.65-8.51-42.77-13.36-22.69-7.8-42.64-3.37-60.48,12.23C174.5,369.7,172.85,371,170.94,372.58Z" transform="translate(-71.05 -84.28)"/><path class="cls-1" d="M287.68,232.63c-22.87-18.44-45.57-36.82-63.4-60.31-7.75-10.21-14.3-21.1-16.88-33.85-4.34-21.42,7.81-43,28.85-50.8,17-6.32,32.84-3.8,47.15,7.48,4,3.13,4.92,3.14,9-.11,29.45-23.28,69.06-5.79,76.11,26.09,2.17,9.83.15,19.33-3.69,28.48-4.93,11.76-12.4,21.86-20.56,31.51C332.87,194.62,300.37,224.28,287.68,232.63Z" transform="translate(-71.05 -84.28)"/><path class="cls-1" d="M130.71,415.72,71.05,315.64,112.3,291,172,391.11Zm13.14-33.16c-1.64-1.07-3.16-2.7-4.95-3.08-2.37-.52-5.12,2.49-5,4.91a4,4,0,0,0,4.3,4.15C140.71,388.6,143.26,386,143.85,382.56Z" transform="translate(-71.05 -84.28)"/><path class="cls-1" d="M143.85,382.56c-.59,3.39-3.14,6-5.61,6a4,4,0,0,1-4.3-4.15c-.16-2.42,2.59-5.43,5-4.91C140.69,379.86,142.21,381.49,143.85,382.56Z" transform="translate(-71.05 -84.28)"/></svg>