<svg id="Layer_1" data-name="Layer 1" xmlns="http://www.w3.org/2000/svg" viewBox="0 0 383.26 359.48"><defs><style>.cls-1{fill:#fff;}</style></defs><path class="cls-1" d="M268.63,389.32c-3.93,7.25-5.52,14.46-3.24,22.28,5.32,18.28,26.67,24,41.84,11.29q35.67-30,71.33-59.92a10.82,10.82,0,0,1,7.63-3c14.22.22,28.44.12,42.66.09,8.25,0,12.76-4.52,12.77-12.7q0-58.36,0-116.74c0-8.33-4.39-12.76-12.61-12.77q-27.13,0-54.26,0c-1,0-2.09.12-3.51.21.79,1.23,1.32,2,1.83,2.86,6.72,10.71,9.25,22.34,6.74,34.73-3.75,18.54-14.75,31.29-32.79,36.86-18.33,5.67-34.73,1.19-48.49-12.26-8.74-8.55-17.26-17.31-26-25.85a7.07,7.07,0,0,0-4.44-2q-34.8-.19-69.6,0a6.21,6.21,0,0,0-3.74,1.14c-12.37,10.28-24.84,20.46-36.9,31.09-7.31,6.45-9.7,15-7.28,24.51s8.55,15.61,18,18.21c6.75,1.85,13.24.68,19.86-2.75-7.77,12.4-8.07,23-1.2,32.16a24.86,24.86,0,0,0,15.46,9.72c6.29,1.24,12.21,0,18.18-3.18a9.71,9.71,0,0,1-.53,1.2c-8.21,11.53-7.3,25.24,2.28,34.26,9.74,9.19,23.72,9.24,34.65.11Q263,394.09,268.63,389.32ZM168.15,95.71c-5,.74-9,3.25-10.75,7.42-2,4.78-1,9.06,2.64,12.67q14.63,14.71,29.34,29.32c4.8,4.75,11.57,4.81,16.06.39s4.59-11.3-.09-16.06c-9.79-9.94-19.62-19.85-29.65-29.53C173.7,98,170.69,97.09,168.15,95.71Zm162.34.71c-1.28.7-4.26,1.63-6.27,3.57-10,9.69-19.85,19.6-29.64,29.54a11,11,0,0,0-.23,15.78c4.38,4.53,11.2,4.56,16.08,0,2.18-2,4.25-4.21,6.36-6.32,7.75-7.75,15.53-15.47,23.23-23.27,3.56-3.62,4.6-7.95,2.51-12.68C340.57,98.63,337,96.52,330.49,96.42Zm-69.26,3.68c0-5.85,0-11.7,0-17.55,0-7.33-4.52-12.25-11.14-12.29s-11.28,4.89-11.3,12.14q-.06,17.55,0,35.1c0,7.24,4.69,12.17,11.33,12.12,6.47-.06,11.05-4.94,11.11-12C261.27,111.81,261.23,106,261.23,100.1Z" transform="translate(-58.37 -70.26)"/><path class="cls-1" d="M58.37,202.88c2.86-6.35,7.77-8.43,14.66-8.37,27.32.26,54.64.08,81.95.15a7.35,7.35,0,0,0,5.89-2.37c13.36-13.85,29.67-20.41,48.95-20.18,21.45.25,42.91.13,64.36,0,12.87-.06,24,4.16,33.1,13.2,14.54,14.39,29.13,28.74,43.37,43.42s7.63,38-11.66,42.59c-9.57,2.26-18-.41-25-7.38-9.72-9.68-19.49-19.32-29.07-29.14a16,16,0,0,0-12.31-5.06c-26.44.12-52.89,0-79.33.15a9.56,9.56,0,0,0-5.61,2c-13.29,10.93-26.44,22-39.63,33.09-28.45,23.84-21.65,67.49,12.7,81.66a4.71,4.71,0,0,1,2.56,2.22c2.08,5.8,3.94,11.68,5.9,17.63-7.41.87-14.49.49-20.4-6.33-6.53-7.52-13.92-14.29-21.12-21.2a8.25,8.25,0,0,0-5.14-2.1c-16.34-.15-32.69-.31-49,0-6.94.14-12.07-1.91-15.13-8.31Z" transform="translate(-58.37 -70.26)"/><path class="cls-1" d="M268.63,389.32q-5.69,4.76-11.36,9.51c-10.93,9.13-24.91,9.08-34.65-.11-9.58-9-10.49-22.73-2.28-34.26a9.71,9.71,0,0,0,.53-1.2c-6,3.14-11.89,4.42-18.18,3.18a24.86,24.86,0,0,1-15.46-9.72c-6.87-9.12-6.57-19.76,1.2-32.16-6.62,3.43-13.11,4.6-19.86,2.75-9.45-2.6-15.59-8.78-18-18.21s0-18.06,7.28-24.51c12.06-10.63,24.53-20.81,36.9-31.09a6.21,6.21,0,0,1,3.74-1.14q34.8-.11,69.6,0a7.07,7.07,0,0,1,4.44,2c8.74,8.54,17.26,17.3,26,25.85,13.76,13.45,30.16,17.93,48.49,12.26,18-5.57,29-18.32,32.79-36.86,2.51-12.39,0-24-6.74-34.73-.51-.82-1-1.63-1.83-2.86,1.42-.09,2.47-.21,3.51-.21q27.12,0,54.26,0c8.22,0,12.61,4.44,12.61,12.77q0,58.36,0,116.74c0,8.18-4.52,12.68-12.77,12.7-14.22,0-28.44.13-42.66-.09a10.82,10.82,0,0,0-7.63,3q-35.62,30-71.33,59.92c-15.17,12.74-36.52,7-41.84-11.29C263.11,403.78,264.7,396.57,268.63,389.32Z" transform="translate(-58.37 -70.26)"/><path class="cls-1" d="M168.15,95.71c2.54,1.38,5.55,2.28,7.55,4.21,10,9.68,19.86,19.59,29.65,29.53,4.68,4.76,4.6,11.63.09,16.06s-11.26,4.36-16.06-.39Q174.62,130.56,160,115.8c-3.59-3.61-4.6-7.89-2.64-12.67C159.12,99,163.12,96.45,168.15,95.71Z" transform="translate(-58.37 -70.26)"/><path class="cls-1" d="M330.49,96.42c6.49.1,10.08,2.21,12,6.64,2.09,4.73,1.05,9.06-2.51,12.68-7.7,7.8-15.48,15.52-23.23,23.27-2.11,2.11-4.18,4.28-6.36,6.32-4.88,4.54-11.7,4.51-16.08,0a11,11,0,0,1,.23-15.78c9.79-9.94,19.61-19.85,29.64-29.54C326.23,98.05,329.21,97.12,330.49,96.42Z" transform="translate(-58.37 -70.26)"/><path class="cls-1" d="M261.23,100.1c0,5.86,0,11.71,0,17.56-.06,7-4.64,11.9-11.11,12-6.64,0-11.31-4.88-11.33-12.12q-.06-17.55,0-35.1c0-7.25,4.66-12.18,11.3-12.14s11.1,5,11.14,12.29C261.25,88.4,261.23,94.25,261.23,100.1Z" transform="translate(-58.37 -70.26)"/></svg>