<svg id="Layer_1" data-name="Layer 1" xmlns="http://www.w3.org/2000/svg" viewBox="0 0 383.39 383.02"><defs><style>.cls-1{fill:#fff;}</style></defs><path class="cls-1" d="M58.3,151.07V92.68c4.89-12.47,8.93-15.22,22.39-15.22H135v-19H365.18v19h4.94c17.34,0,34.69-.1,52,0,12.39.1,19.44,7.32,19.48,19.69.05,15.59.14,31.19,0,46.78-.44,41.25-31,77.13-71.63,83.95-4.23.71-4.94,2.24-5.16,6.06C362,282.8,338.4,317.57,293.74,337.74c-5.86,2.64-12.18,4.26-18.68,6.49,4.39,13.16,8.81,26.44,13.24,39.73,14.66,0,28.88,0,43.1,0a18.48,18.48,0,0,1,18.13,13c3.65,10.6,7.39,21.16,11,31.77,1.44,4.21,2.67,8.5,4,12.76H135.42a7.76,7.76,0,0,1,.17-1.82c5.1-14.7,10-29.47,15.49-44,1.18-3.16,4-6,6.62-8.26,4.33-3.81,9.9-3.48,15.3-3.46,12.83.06,25.67,0,38.65,0l13.19-39.59c-57.42-17.46-87.27-55.95-90.45-115.55l-3.17-.62c-35.92-7.43-59.66-28.27-70-63.72C59.9,160.1,59.25,155.54,58.3,151.07Zm230,98.77c-3.07-12.27-5.84-23.62-8.78-34.94a6.41,6.41,0,0,1,1.25-6.16c8.18-10.69,16.22-21.5,24.29-32.28.63-.84,1.14-1.78,2-3.18h-4.59c-10.48,0-21-.14-31.44.08-3,.06-4.33-1-5.48-3.66-4.38-10.18-9-20.24-13.58-30.34-.54-1.19-1.18-2.33-2-4-.86,1.73-1.5,2.89-2,4.09-4.6,10.22-9.27,20.41-13.71,30.7-1.06,2.47-2.43,3.23-5,3.19-9.6-.15-19.21-.06-28.82-.06h-7.6c1.1,1.6,1.75,2.61,2.46,3.56,8,10.68,16.08,21.3,23.92,32.09a7.92,7.92,0,0,1,1.24,5.69c-2.07,9.23-4.52,18.37-6.82,27.55-.57,2.31-1.07,4.63-1.76,7.65,12.17-6.7,23.66-12.94,35-19.37a5.7,5.7,0,0,1,6.43.05C264.62,236.92,276.11,243.15,288.29,249.84Zm76.94-59.58c1.58-.35,2.9-.54,4.16-.94,11.08-3.43,19.33-10.47,25.78-19.95,11.25-16.51,7.57-35.14,8.19-53.32H365.23Zm-230.59-.06V116.08H96.58c0,8.62,0,17,0,25.28,0,14.79,5.71,27.11,16.56,37A49.31,49.31,0,0,0,134.64,190.2Z" transform="translate(-58.3 -58.49)"/></svg>